<svg xmlns="http://www.w3.org/2000/svg" viewBox="0 0 1440 398" width="1440" height="398" fill="none" role="presentation">
<circle cx="1206" cy="84" r="58" fill="#FFC825" opacity="0.18"/>
<g opacity="1" fill="#EEF2F4">
<rect x="190.2" y="83.35" width="119.6" height="25.299999999999997" rx="12.649999999999999"/>
<circle cx="224.7" cy="82.2" r="23"/>
<circle cx="261.5" cy="75.3" r="29.9"/>
<circle cx="293.7" cy="89.1" r="18.4"/>
</g>
<g opacity="0.85" fill="#EEF2F4">
<rect x="515.8" y="52.65" width="88.39999999999999" height="18.7" rx="9.35"/>
<circle cx="541.3" cy="51.8" r="17"/>
<circle cx="568.5" cy="46.7" r="22.099999999999998"/>
<circle cx="592.3" cy="56.9" r="13.6"/>
</g>
<g opacity="0.9" fill="#EEF2F4">
<rect x="848" y="97" width="104" height="22" rx="11"/>
<circle cx="878" cy="96" r="20"/>
<circle cx="910" cy="90" r="26"/>
<circle cx="938" cy="102" r="16"/>
</g>
<g opacity="0.8" fill="#EEF2F4">
<rect x="1313.2" y="60.1" width="93.60000000000001" height="19.8" rx="9.9"/>
<circle cx="1340.2" cy="59.2" r="18"/>
<circle cx="1369" cy="53.8" r="23.400000000000002"/>
<circle cx="1394.2" cy="64.6" r="14.4"/>
</g>
<rect x="56" y="171" width="104" height="201" fill="#E4E9EC"/>
<rect x="56" y="171" width="104" height="7" fill="#DAE0E4"/>
<rect x="73.0" y="187" width="11.5" height="11" rx="1.5" fill="#F5F8F9"/>
<rect x="92.5" y="187" width="11.5" height="11" rx="1.5" fill="#F5F8F9"/>
<rect x="112.0" y="187" width="11.5" height="11" rx="1.5" fill="#F5F8F9"/>
<rect x="131.5" y="187" width="11.5" height="11" rx="1.5" fill="#F5F8F9"/>
<rect x="73.0" y="208" width="11.5" height="11" rx="1.5" fill="#F5F8F9"/>
<rect x="92.5" y="208" width="11.5" height="11" rx="1.5" fill="#F5F8F9"/>
<rect x="112.0" y="208" width="11.5" height="11" rx="1.5" fill="#F5F8F9"/>
<rect x="131.5" y="208" width="11.5" height="11" rx="1.5" fill="#F5F8F9"/>
<rect x="73.0" y="229" width="11.5" height="11" rx="1.5" fill="#F5F8F9"/>
<rect x="92.5" y="229" width="11.5" height="11" rx="1.5" fill="#FFC825"/>
<rect x="112.0" y="229" width="11.5" height="11" rx="1.5" fill="#F5F8F9"/>
<rect x="131.5" y="229" width="11.5" height="11" rx="1.5" fill="#F5F8F9"/>
<rect x="73.0" y="250" width="11.5" height="11" rx="1.5" fill="#F5F8F9"/>
<rect x="92.5" y="250" width="11.5" height="11" rx="1.5" fill="#F5F8F9"/>
<rect x="112.0" y="250" width="11.5" height="11" rx="1.5" fill="#F5F8F9"/>
<rect x="131.5" y="250" width="11.5" height="11" rx="1.5" fill="#F5F8F9"/>
<rect x="73.0" y="271" width="11.5" height="11" rx="1.5" fill="#F5F8F9"/>
<rect x="92.5" y="271" width="11.5" height="11" rx="1.5" fill="#F5F8F9"/>
<rect x="112.0" y="271" width="11.5" height="11" rx="1.5" fill="#F5F8F9"/>
<rect x="131.5" y="271" width="11.5" height="11" rx="1.5" fill="#F5F8F9"/>
<rect x="73.0" y="292" width="11.5" height="11" rx="1.5" fill="#F5F8F9"/>
<rect x="92.5" y="292" width="11.5" height="11" rx="1.5" fill="#F5F8F9"/>
<rect x="112.0" y="292" width="11.5" height="11" rx="1.5" fill="#F5F8F9"/>
<rect x="131.5" y="292" width="11.5" height="11" rx="1.5" fill="#F5F8F9"/>
<rect x="73.0" y="313" width="11.5" height="11" rx="1.5" fill="#F5F8F9"/>
<rect x="92.5" y="313" width="11.5" height="11" rx="1.5" fill="#F5F8F9"/>
<rect x="112.0" y="313" width="11.5" height="11" rx="1.5" fill="#F5F8F9"/>
<rect x="131.5" y="313" width="11.5" height="11" rx="1.5" fill="#F5F8F9"/>
<rect x="73.0" y="334" width="11.5" height="11" rx="1.5" fill="#F5F8F9"/>
<rect x="92.5" y="334" width="11.5" height="11" rx="1.5" fill="#F5F8F9"/>
<rect x="112.0" y="334" width="11.5" height="11" rx="1.5" fill="#F5F8F9"/>
<rect x="131.5" y="334" width="11.5" height="11" rx="1.5" fill="#F5F8F9"/>
<rect x="73.0" y="355" width="11.5" height="11" rx="1.5" fill="#F5F8F9"/>
<rect x="92.5" y="355" width="11.5" height="11" rx="1.5" fill="#F5F8F9"/>
<rect x="112.0" y="355" width="11.5" height="11" rx="1.5" fill="#F5F8F9"/>
<rect x="131.5" y="355" width="11.5" height="11" rx="1.5" fill="#F5F8F9"/>
<rect x="196" y="192" width="88" height="180" fill="#E4E9EC"/>
<rect x="196" y="192" width="88" height="7" fill="#DAE0E4"/>
<rect x="213.0" y="208" width="12.7" height="11" rx="1.5" fill="#F5F8F9"/>
<rect x="233.7" y="208" width="12.7" height="11" rx="1.5" fill="#F5F8F9"/>
<rect x="254.3" y="208" width="12.7" height="11" rx="1.5" fill="#F5F8F9"/>
<rect x="213.0" y="229" width="12.7" height="11" rx="1.5" fill="#F5F8F9"/>
<rect x="233.7" y="229" width="12.7" height="11" rx="1.5" fill="#F5F8F9"/>
<rect x="254.3" y="229" width="12.7" height="11" rx="1.5" fill="#F5F8F9"/>
<rect x="213.0" y="250" width="12.7" height="11" rx="1.5" fill="#F5F8F9"/>
<rect x="233.7" y="250" width="12.7" height="11" rx="1.5" fill="#F5F8F9"/>
<rect x="254.3" y="250" width="12.7" height="11" rx="1.5" fill="#F5F8F9"/>
<rect x="213.0" y="271" width="12.7" height="11" rx="1.5" fill="#F5F8F9"/>
<rect x="233.7" y="271" width="12.7" height="11" rx="1.5" fill="#F5F8F9"/>
<rect x="254.3" y="271" width="12.7" height="11" rx="1.5" fill="#F5F8F9"/>
<rect x="213.0" y="292" width="12.7" height="11" rx="1.5" fill="#F5F8F9"/>
<rect x="233.7" y="292" width="12.7" height="11" rx="1.5" fill="#F5F8F9"/>
<rect x="254.3" y="292" width="12.7" height="11" rx="1.5" fill="#F5F8F9"/>
<rect x="213.0" y="313" width="12.7" height="11" rx="1.5" fill="#F5F8F9"/>
<rect x="233.7" y="313" width="12.7" height="11" rx="1.5" fill="#F5F8F9"/>
<rect x="254.3" y="313" width="12.7" height="11" rx="1.5" fill="#F5F8F9"/>
<rect x="213.0" y="334" width="12.7" height="11" rx="1.5" fill="#F5F8F9"/>
<rect x="233.7" y="334" width="12.7" height="11" rx="1.5" fill="#F5F8F9"/>
<rect x="254.3" y="334" width="12.7" height="11" rx="1.5" fill="#F5F8F9"/>
<rect x="213.0" y="355" width="12.7" height="11" rx="1.5" fill="#F5F8F9"/>
<rect x="233.7" y="355" width="12.7" height="11" rx="1.5" fill="#F5F8F9"/>
<rect x="254.3" y="355" width="12.7" height="11" rx="1.5" fill="#F5F8F9"/>
<rect x="318" y="171" width="124" height="201" fill="#E4E9EC"/>
<rect x="318" y="171" width="124" height="7" fill="#DAE0E4"/>
<rect x="335.0" y="187" width="11.6" height="11" rx="1.5" fill="#F5F8F9"/>
<rect x="354.6" y="187" width="11.6" height="11" rx="1.5" fill="#F5F8F9"/>
<rect x="374.2" y="187" width="11.6" height="11" rx="1.5" fill="#F5F8F9"/>
<rect x="393.8" y="187" width="11.6" height="11" rx="1.5" fill="#F5F8F9"/>
<rect x="413.4" y="187" width="11.6" height="11" rx="1.5" fill="#F5F8F9"/>
<rect x="335.0" y="208" width="11.6" height="11" rx="1.5" fill="#F5F8F9"/>
<rect x="354.6" y="208" width="11.6" height="11" rx="1.5" fill="#F5F8F9"/>
<rect x="374.2" y="208" width="11.6" height="11" rx="1.5" fill="#F5F8F9"/>
<rect x="393.8" y="208" width="11.6" height="11" rx="1.5" fill="#F5F8F9"/>
<rect x="413.4" y="208" width="11.6" height="11" rx="1.5" fill="#F5F8F9"/>
<rect x="335.0" y="229" width="11.6" height="11" rx="1.5" fill="#F5F8F9"/>
<rect x="354.6" y="229" width="11.6" height="11" rx="1.5" fill="#F5F8F9"/>
<rect x="374.2" y="229" width="11.6" height="11" rx="1.5" fill="#F5F8F9"/>
<rect x="393.8" y="229" width="11.6" height="11" rx="1.5" fill="#F5F8F9"/>
<rect x="413.4" y="229" width="11.6" height="11" rx="1.5" fill="#F5F8F9"/>
<rect x="335.0" y="250" width="11.6" height="11" rx="1.5" fill="#F5F8F9"/>
<rect x="354.6" y="250" width="11.6" height="11" rx="1.5" fill="#F5F8F9"/>
<rect x="374.2" y="250" width="11.6" height="11" rx="1.5" fill="#F5F8F9"/>
<rect x="393.8" y="250" width="11.6" height="11" rx="1.5" fill="#F5F8F9"/>
<rect x="413.4" y="250" width="11.6" height="11" rx="1.5" fill="#F5F8F9"/>
<rect x="335.0" y="271" width="11.6" height="11" rx="1.5" fill="#F5F8F9"/>
<rect x="354.6" y="271" width="11.6" height="11" rx="1.5" fill="#F5F8F9"/>
<rect x="374.2" y="271" width="11.6" height="11" rx="1.5" fill="#F5F8F9"/>
<rect x="393.8" y="271" width="11.6" height="11" rx="1.5" fill="#F5F8F9"/>
<rect x="413.4" y="271" width="11.6" height="11" rx="1.5" fill="#F5F8F9"/>
<rect x="335.0" y="292" width="11.6" height="11" rx="1.5" fill="#F5F8F9"/>
<rect x="354.6" y="292" width="11.6" height="11" rx="1.5" fill="#F5F8F9"/>
<rect x="374.2" y="292" width="11.6" height="11" rx="1.5" fill="#F5F8F9"/>
<rect x="393.8" y="292" width="11.6" height="11" rx="1.5" fill="#FFC825"/>
<rect x="413.4" y="292" width="11.6" height="11" rx="1.5" fill="#F5F8F9"/>
<rect x="335.0" y="313" width="11.6" height="11" rx="1.5" fill="#F5F8F9"/>
<rect x="354.6" y="313" width="11.6" height="11" rx="1.5" fill="#F5F8F9"/>
<rect x="374.2" y="313" width="11.6" height="11" rx="1.5" fill="#F5F8F9"/>
<rect x="393.8" y="313" width="11.6" height="11" rx="1.5" fill="#F5F8F9"/>
<rect x="413.4" y="313" width="11.6" height="11" rx="1.5" fill="#F5F8F9"/>
<rect x="335.0" y="334" width="11.6" height="11" rx="1.5" fill="#F5F8F9"/>
<rect x="354.6" y="334" width="11.6" height="11" rx="1.5" fill="#F5F8F9"/>
<rect x="374.2" y="334" width="11.6" height="11" rx="1.5" fill="#F5F8F9"/>
<rect x="393.8" y="334" width="11.6" height="11" rx="1.5" fill="#F5F8F9"/>
<rect x="413.4" y="334" width="11.6" height="11" rx="1.5" fill="#F5F8F9"/>
<rect x="335.0" y="355" width="11.6" height="11" rx="1.5" fill="#F5F8F9"/>
<rect x="354.6" y="355" width="11.6" height="11" rx="1.5" fill="#F5F8F9"/>
<rect x="374.2" y="355" width="11.6" height="11" rx="1.5" fill="#F5F8F9"/>
<rect x="393.8" y="355" width="11.6" height="11" rx="1.5" fill="#F5F8F9"/>
<rect x="413.4" y="355" width="11.6" height="11" rx="1.5" fill="#F5F8F9"/>
<rect x="478" y="213" width="96" height="159" fill="#E4E9EC"/>
<rect x="478" y="213" width="96" height="7" fill="#DAE0E4"/>
<rect x="495.2" y="229" width="15.0" height="11" rx="1.5" fill="#F5F8F9"/>
<rect x="518.5" y="229" width="15.0" height="11" rx="1.5" fill="#F5F8F9"/>
<rect x="541.8" y="229" width="15.0" height="11" rx="1.5" fill="#F5F8F9"/>
<rect x="495.2" y="250" width="15.0" height="11" rx="1.5" fill="#F5F8F9"/>
<rect x="518.5" y="250" width="15.0" height="11" rx="1.5" fill="#F5F8F9"/>
<rect x="541.8" y="250" width="15.0" height="11" rx="1.5" fill="#F5F8F9"/>
<rect x="495.2" y="271" width="15.0" height="11" rx="1.5" fill="#F5F8F9"/>
<rect x="518.5" y="271" width="15.0" height="11" rx="1.5" fill="#F5F8F9"/>
<rect x="541.8" y="271" width="15.0" height="11" rx="1.5" fill="#F5F8F9"/>
<rect x="495.2" y="292" width="15.0" height="11" rx="1.5" fill="#F5F8F9"/>
<rect x="518.5" y="292" width="15.0" height="11" rx="1.5" fill="#F5F8F9"/>
<rect x="541.8" y="292" width="15.0" height="11" rx="1.5" fill="#F5F8F9"/>
<rect x="495.2" y="313" width="15.0" height="11" rx="1.5" fill="#F5F8F9"/>
<rect x="518.5" y="313" width="15.0" height="11" rx="1.5" fill="#F5F8F9"/>
<rect x="541.8" y="313" width="15.0" height="11" rx="1.5" fill="#F5F8F9"/>
<rect x="495.2" y="334" width="15.0" height="11" rx="1.5" fill="#F5F8F9"/>
<rect x="518.5" y="334" width="15.0" height="11" rx="1.5" fill="#F5F8F9"/>
<rect x="541.8" y="334" width="15.0" height="11" rx="1.5" fill="#F5F8F9"/>
<rect x="495.2" y="355" width="15.0" height="11" rx="1.5" fill="#F5F8F9"/>
<rect x="518.5" y="355" width="15.0" height="11" rx="1.5" fill="#F5F8F9"/>
<rect x="541.8" y="355" width="15.0" height="11" rx="1.5" fill="#F5F8F9"/>
<rect x="612" y="171" width="116" height="201" fill="#E4E9EC"/>
<rect x="612" y="171" width="116" height="7" fill="#DAE0E4"/>
<rect x="629.0" y="187" width="14.5" height="11" rx="1.5" fill="#F5F8F9"/>
<rect x="651.5" y="187" width="14.5" height="11" rx="1.5" fill="#F5F8F9"/>
<rect x="674.0" y="187" width="14.5" height="11" rx="1.5" fill="#F5F8F9"/>
<rect x="696.5" y="187" width="14.5" height="11" rx="1.5" fill="#F5F8F9"/>
<rect x="629.0" y="208" width="14.5" height="11" rx="1.5" fill="#FFC825"/>
<rect x="651.5" y="208" width="14.5" height="11" rx="1.5" fill="#F5F8F9"/>
<rect x="674.0" y="208" width="14.5" height="11" rx="1.5" fill="#F5F8F9"/>
<rect x="696.5" y="208" width="14.5" height="11" rx="1.5" fill="#F5F8F9"/>
<rect x="629.0" y="229" width="14.5" height="11" rx="1.5" fill="#F5F8F9"/>
<rect x="651.5" y="229" width="14.5" height="11" rx="1.5" fill="#F5F8F9"/>
<rect x="674.0" y="229" width="14.5" height="11" rx="1.5" fill="#F5F8F9"/>
<rect x="696.5" y="229" width="14.5" height="11" rx="1.5" fill="#F5F8F9"/>
<rect x="629.0" y="250" width="14.5" height="11" rx="1.5" fill="#F5F8F9"/>
<rect x="651.5" y="250" width="14.5" height="11" rx="1.5" fill="#F5F8F9"/>
<rect x="674.0" y="250" width="14.5" height="11" rx="1.5" fill="#F5F8F9"/>
<rect x="696.5" y="250" width="14.5" height="11" rx="1.5" fill="#F5F8F9"/>
<rect x="629.0" y="271" width="14.5" height="11" rx="1.5" fill="#F5F8F9"/>
<rect x="651.5" y="271" width="14.5" height="11" rx="1.5" fill="#F5F8F9"/>
<rect x="674.0" y="271" width="14.5" height="11" rx="1.5" fill="#F5F8F9"/>
<rect x="696.5" y="271" width="14.5" height="11" rx="1.5" fill="#F5F8F9"/>
<rect x="629.0" y="292" width="14.5" height="11" rx="1.5" fill="#F5F8F9"/>
<rect x="651.5" y="292" width="14.5" height="11" rx="1.5" fill="#F5F8F9"/>
<rect x="674.0" y="292" width="14.5" height="11" rx="1.5" fill="#F5F8F9"/>
<rect x="696.5" y="292" width="14.5" height="11" rx="1.5" fill="#F5F8F9"/>
<rect x="629.0" y="313" width="14.5" height="11" rx="1.5" fill="#F5F8F9"/>
<rect x="651.5" y="313" width="14.5" height="11" rx="1.5" fill="#F5F8F9"/>
<rect x="674.0" y="313" width="14.5" height="11" rx="1.5" fill="#F5F8F9"/>
<rect x="696.5" y="313" width="14.5" height="11" rx="1.5" fill="#F5F8F9"/>
<rect x="629.0" y="334" width="14.5" height="11" rx="1.5" fill="#F5F8F9"/>
<rect x="651.5" y="334" width="14.5" height="11" rx="1.5" fill="#F5F8F9"/>
<rect x="674.0" y="334" width="14.5" height="11" rx="1.5" fill="#F5F8F9"/>
<rect x="696.5" y="334" width="14.5" height="11" rx="1.5" fill="#F5F8F9"/>
<rect x="629.0" y="355" width="14.5" height="11" rx="1.5" fill="#F5F8F9"/>
<rect x="651.5" y="355" width="14.5" height="11" rx="1.5" fill="#F5F8F9"/>
<rect x="674.0" y="355" width="14.5" height="11" rx="1.5" fill="#F5F8F9"/>
<rect x="696.5" y="355" width="14.5" height="11" rx="1.5" fill="#F5F8F9"/>
<rect x="766" y="192" width="88" height="180" fill="#E4E9EC"/>
<rect x="766" y="192" width="88" height="7" fill="#DAE0E4"/>
<rect x="783.0" y="208" width="12.7" height="11" rx="1.5" fill="#F5F8F9"/>
<rect x="803.7" y="208" width="12.7" height="11" rx="1.5" fill="#F5F8F9"/>
<rect x="824.3" y="208" width="12.7" height="11" rx="1.5" fill="#F5F8F9"/>
<rect x="783.0" y="229" width="12.7" height="11" rx="1.5" fill="#F5F8F9"/>
<rect x="803.7" y="229" width="12.7" height="11" rx="1.5" fill="#F5F8F9"/>
<rect x="824.3" y="229" width="12.7" height="11" rx="1.5" fill="#F5F8F9"/>
<rect x="783.0" y="250" width="12.7" height="11" rx="1.5" fill="#F5F8F9"/>
<rect x="803.7" y="250" width="12.7" height="11" rx="1.5" fill="#F5F8F9"/>
<rect x="824.3" y="250" width="12.7" height="11" rx="1.5" fill="#F5F8F9"/>
<rect x="783.0" y="271" width="12.7" height="11" rx="1.5" fill="#F5F8F9"/>
<rect x="803.7" y="271" width="12.7" height="11" rx="1.5" fill="#F5F8F9"/>
<rect x="824.3" y="271" width="12.7" height="11" rx="1.5" fill="#F5F8F9"/>
<rect x="783.0" y="292" width="12.7" height="11" rx="1.5" fill="#F5F8F9"/>
<rect x="803.7" y="292" width="12.7" height="11" rx="1.5" fill="#F5F8F9"/>
<rect x="824.3" y="292" width="12.7" height="11" rx="1.5" fill="#F5F8F9"/>
<rect x="783.0" y="313" width="12.7" height="11" rx="1.5" fill="#F5F8F9"/>
<rect x="803.7" y="313" width="12.7" height="11" rx="1.5" fill="#F5F8F9"/>
<rect x="824.3" y="313" width="12.7" height="11" rx="1.5" fill="#F5F8F9"/>
<rect x="783.0" y="334" width="12.7" height="11" rx="1.5" fill="#F5F8F9"/>
<rect x="803.7" y="334" width="12.7" height="11" rx="1.5" fill="#F5F8F9"/>
<rect x="824.3" y="334" width="12.7" height="11" rx="1.5" fill="#F5F8F9"/>
<rect x="783.0" y="355" width="12.7" height="11" rx="1.5" fill="#F5F8F9"/>
<rect x="803.7" y="355" width="12.7" height="11" rx="1.5" fill="#F5F8F9"/>
<rect x="824.3" y="355" width="12.7" height="11" rx="1.5" fill="#F5F8F9"/>
<rect x="890" y="171" width="128" height="201" fill="#E4E9EC"/>
<rect x="890" y="171" width="128" height="7" fill="#DAE0E4"/>
<rect x="907.0" y="187" width="12.4" height="11" rx="1.5" fill="#F5F8F9"/>
<rect x="927.4" y="187" width="12.4" height="11" rx="1.5" fill="#F5F8F9"/>
<rect x="947.8" y="187" width="12.4" height="11" rx="1.5" fill="#F5F8F9"/>
<rect x="968.2" y="187" width="12.4" height="11" rx="1.5" fill="#F5F8F9"/>
<rect x="988.6" y="187" width="12.4" height="11" rx="1.5" fill="#F5F8F9"/>
<rect x="907.0" y="208" width="12.4" height="11" rx="1.5" fill="#F5F8F9"/>
<rect x="927.4" y="208" width="12.4" height="11" rx="1.5" fill="#F5F8F9"/>
<rect x="947.8" y="208" width="12.4" height="11" rx="1.5" fill="#F5F8F9"/>
<rect x="968.2" y="208" width="12.4" height="11" rx="1.5" fill="#F5F8F9"/>
<rect x="988.6" y="208" width="12.4" height="11" rx="1.5" fill="#F5F8F9"/>
<rect x="907.0" y="229" width="12.4" height="11" rx="1.5" fill="#F5F8F9"/>
<rect x="927.4" y="229" width="12.4" height="11" rx="1.5" fill="#F5F8F9"/>
<rect x="947.8" y="229" width="12.4" height="11" rx="1.5" fill="#F5F8F9"/>
<rect x="968.2" y="229" width="12.4" height="11" rx="1.5" fill="#F5F8F9"/>
<rect x="988.6" y="229" width="12.4" height="11" rx="1.5" fill="#F5F8F9"/>
<rect x="907.0" y="250" width="12.4" height="11" rx="1.5" fill="#F5F8F9"/>
<rect x="927.4" y="250" width="12.4" height="11" rx="1.5" fill="#F5F8F9"/>
<rect x="947.8" y="250" width="12.4" height="11" rx="1.5" fill="#F5F8F9"/>
<rect x="968.2" y="250" width="12.4" height="11" rx="1.5" fill="#F5F8F9"/>
<rect x="988.6" y="250" width="12.4" height="11" rx="1.5" fill="#F5F8F9"/>
<rect x="907.0" y="271" width="12.4" height="11" rx="1.5" fill="#F5F8F9"/>
<rect x="927.4" y="271" width="12.4" height="11" rx="1.5" fill="#F5F8F9"/>
<rect x="947.8" y="271" width="12.4" height="11" rx="1.5" fill="#F5F8F9"/>
<rect x="968.2" y="271" width="12.4" height="11" rx="1.5" fill="#F5F8F9"/>
<rect x="988.6" y="271" width="12.4" height="11" rx="1.5" fill="#F5F8F9"/>
<rect x="907.0" y="292" width="12.4" height="11" rx="1.5" fill="#F5F8F9"/>
<rect x="927.4" y="292" width="12.4" height="11" rx="1.5" fill="#F5F8F9"/>
<rect x="947.8" y="292" width="12.4" height="11" rx="1.5" fill="#F5F8F9"/>
<rect x="968.2" y="292" width="12.4" height="11" rx="1.5" fill="#F5F8F9"/>
<rect x="988.6" y="292" width="12.4" height="11" rx="1.5" fill="#F5F8F9"/>
<rect x="907.0" y="313" width="12.4" height="11" rx="1.5" fill="#F5F8F9"/>
<rect x="927.4" y="313" width="12.4" height="11" rx="1.5" fill="#F5F8F9"/>
<rect x="947.8" y="313" width="12.4" height="11" rx="1.5" fill="#F5F8F9"/>
<rect x="968.2" y="313" width="12.4" height="11" rx="1.5" fill="#F5F8F9"/>
<rect x="988.6" y="313" width="12.4" height="11" rx="1.5" fill="#F5F8F9"/>
<rect x="907.0" y="334" width="12.4" height="11" rx="1.5" fill="#F5F8F9"/>
<rect x="927.4" y="334" width="12.4" height="11" rx="1.5" fill="#F5F8F9"/>
<rect x="947.8" y="334" width="12.4" height="11" rx="1.5" fill="#FFC825"/>
<rect x="968.2" y="334" width="12.4" height="11" rx="1.5" fill="#F5F8F9"/>
<rect x="988.6" y="334" width="12.4" height="11" rx="1.5" fill="#F5F8F9"/>
<rect x="907.0" y="355" width="12.4" height="11" rx="1.5" fill="#F5F8F9"/>
<rect x="927.4" y="355" width="12.4" height="11" rx="1.5" fill="#F5F8F9"/>
<rect x="947.8" y="355" width="12.4" height="11" rx="1.5" fill="#F5F8F9"/>
<rect x="968.2" y="355" width="12.4" height="11" rx="1.5" fill="#F5F8F9"/>
<rect x="988.6" y="355" width="12.4" height="11" rx="1.5" fill="#F5F8F9"/>
<rect x="1054" y="213" width="96" height="159" fill="#E4E9EC"/>
<rect x="1054" y="213" width="96" height="7" fill="#DAE0E4"/>
<rect x="1071.2" y="229" width="15.0" height="11" rx="1.5" fill="#F5F8F9"/>
<rect x="1094.5" y="229" width="15.0" height="11" rx="1.5" fill="#F5F8F9"/>
<rect x="1117.8" y="229" width="15.0" height="11" rx="1.5" fill="#F5F8F9"/>
<rect x="1071.2" y="250" width="15.0" height="11" rx="1.5" fill="#F5F8F9"/>
<rect x="1094.5" y="250" width="15.0" height="11" rx="1.5" fill="#F5F8F9"/>
<rect x="1117.8" y="250" width="15.0" height="11" rx="1.5" fill="#F5F8F9"/>
<rect x="1071.2" y="271" width="15.0" height="11" rx="1.5" fill="#F5F8F9"/>
<rect x="1094.5" y="271" width="15.0" height="11" rx="1.5" fill="#F5F8F9"/>
<rect x="1117.8" y="271" width="15.0" height="11" rx="1.5" fill="#F5F8F9"/>
<rect x="1071.2" y="292" width="15.0" height="11" rx="1.5" fill="#F5F8F9"/>
<rect x="1094.5" y="292" width="15.0" height="11" rx="1.5" fill="#F5F8F9"/>
<rect x="1117.8" y="292" width="15.0" height="11" rx="1.5" fill="#F5F8F9"/>
<rect x="1071.2" y="313" width="15.0" height="11" rx="1.5" fill="#F5F8F9"/>
<rect x="1094.5" y="313" width="15.0" height="11" rx="1.5" fill="#F5F8F9"/>
<rect x="1117.8" y="313" width="15.0" height="11" rx="1.5" fill="#F5F8F9"/>
<rect x="1071.2" y="334" width="15.0" height="11" rx="1.5" fill="#F5F8F9"/>
<rect x="1094.5" y="334" width="15.0" height="11" rx="1.5" fill="#F5F8F9"/>
<rect x="1117.8" y="334" width="15.0" height="11" rx="1.5" fill="#F5F8F9"/>
<rect x="1071.2" y="355" width="15.0" height="11" rx="1.5" fill="#F5F8F9"/>
<rect x="1094.5" y="355" width="15.0" height="11" rx="1.5" fill="#F5F8F9"/>
<rect x="1117.8" y="355" width="15.0" height="11" rx="1.5" fill="#F5F8F9"/>
<rect x="1188" y="171" width="120" height="201" fill="#E4E9EC"/>
<rect x="1188" y="171" width="120" height="7" fill="#DAE0E4"/>
<rect x="1205.3" y="187" width="15.0" height="11" rx="1.5" fill="#F5F8F9"/>
<rect x="1228.8" y="187" width="15.0" height="11" rx="1.5" fill="#F5F8F9"/>
<rect x="1252.3" y="187" width="15.0" height="11" rx="1.5" fill="#F5F8F9"/>
<rect x="1275.8" y="187" width="15.0" height="11" rx="1.5" fill="#F5F8F9"/>
<rect x="1205.3" y="208" width="15.0" height="11" rx="1.5" fill="#F5F8F9"/>
<rect x="1228.8" y="208" width="15.0" height="11" rx="1.5" fill="#F5F8F9"/>
<rect x="1252.3" y="208" width="15.0" height="11" rx="1.5" fill="#F5F8F9"/>
<rect x="1275.8" y="208" width="15.0" height="11" rx="1.5" fill="#F5F8F9"/>
<rect x="1205.3" y="229" width="15.0" height="11" rx="1.5" fill="#F5F8F9"/>
<rect x="1228.8" y="229" width="15.0" height="11" rx="1.5" fill="#F5F8F9"/>
<rect x="1252.3" y="229" width="15.0" height="11" rx="1.5" fill="#F5F8F9"/>
<rect x="1275.8" y="229" width="15.0" height="11" rx="1.5" fill="#F5F8F9"/>
<rect x="1205.3" y="250" width="15.0" height="11" rx="1.5" fill="#F5F8F9"/>
<rect x="1228.8" y="250" width="15.0" height="11" rx="1.5" fill="#F5F8F9"/>
<rect x="1252.3" y="250" width="15.0" height="11" rx="1.5" fill="#F5F8F9"/>
<rect x="1275.8" y="250" width="15.0" height="11" rx="1.5" fill="#FFC825"/>
<rect x="1205.3" y="271" width="15.0" height="11" rx="1.5" fill="#F5F8F9"/>
<rect x="1228.8" y="271" width="15.0" height="11" rx="1.5" fill="#F5F8F9"/>
<rect x="1252.3" y="271" width="15.0" height="11" rx="1.5" fill="#F5F8F9"/>
<rect x="1275.8" y="271" width="15.0" height="11" rx="1.5" fill="#F5F8F9"/>
<rect x="1205.3" y="292" width="15.0" height="11" rx="1.5" fill="#F5F8F9"/>
<rect x="1228.8" y="292" width="15.0" height="11" rx="1.5" fill="#F5F8F9"/>
<rect x="1252.3" y="292" width="15.0" height="11" rx="1.5" fill="#F5F8F9"/>
<rect x="1275.8" y="292" width="15.0" height="11" rx="1.5" fill="#F5F8F9"/>
<rect x="1205.3" y="313" width="15.0" height="11" rx="1.5" fill="#F5F8F9"/>
<rect x="1228.8" y="313" width="15.0" height="11" rx="1.5" fill="#F5F8F9"/>
<rect x="1252.3" y="313" width="15.0" height="11" rx="1.5" fill="#F5F8F9"/>
<rect x="1275.8" y="313" width="15.0" height="11" rx="1.5" fill="#F5F8F9"/>
<rect x="1205.3" y="334" width="15.0" height="11" rx="1.5" fill="#F5F8F9"/>
<rect x="1228.8" y="334" width="15.0" height="11" rx="1.5" fill="#F5F8F9"/>
<rect x="1252.3" y="334" width="15.0" height="11" rx="1.5" fill="#F5F8F9"/>
<rect x="1275.8" y="334" width="15.0" height="11" rx="1.5" fill="#F5F8F9"/>
<rect x="1205.3" y="355" width="15.0" height="11" rx="1.5" fill="#F5F8F9"/>
<rect x="1228.8" y="355" width="15.0" height="11" rx="1.5" fill="#F5F8F9"/>
<rect x="1252.3" y="355" width="15.0" height="11" rx="1.5" fill="#F5F8F9"/>
<rect x="1275.8" y="355" width="15.0" height="11" rx="1.5" fill="#F5F8F9"/>
<rect x="1346" y="192" width="84" height="180" fill="#E4E9EC"/>
<rect x="1346" y="192" width="84" height="7" fill="#DAE0E4"/>
<rect x="1363.0" y="208" width="11.3" height="11" rx="1.5" fill="#F5F8F9"/>
<rect x="1382.3" y="208" width="11.3" height="11" rx="1.5" fill="#F5F8F9"/>
<rect x="1401.7" y="208" width="11.3" height="11" rx="1.5" fill="#F5F8F9"/>
<rect x="1363.0" y="229" width="11.3" height="11" rx="1.5" fill="#F5F8F9"/>
<rect x="1382.3" y="229" width="11.3" height="11" rx="1.5" fill="#F5F8F9"/>
<rect x="1401.7" y="229" width="11.3" height="11" rx="1.5" fill="#F5F8F9"/>
<rect x="1363.0" y="250" width="11.3" height="11" rx="1.5" fill="#F5F8F9"/>
<rect x="1382.3" y="250" width="11.3" height="11" rx="1.5" fill="#F5F8F9"/>
<rect x="1401.7" y="250" width="11.3" height="11" rx="1.5" fill="#F5F8F9"/>
<rect x="1363.0" y="271" width="11.3" height="11" rx="1.5" fill="#F5F8F9"/>
<rect x="1382.3" y="271" width="11.3" height="11" rx="1.5" fill="#F5F8F9"/>
<rect x="1401.7" y="271" width="11.3" height="11" rx="1.5" fill="#F5F8F9"/>
<rect x="1363.0" y="292" width="11.3" height="11" rx="1.5" fill="#F5F8F9"/>
<rect x="1382.3" y="292" width="11.3" height="11" rx="1.5" fill="#F5F8F9"/>
<rect x="1401.7" y="292" width="11.3" height="11" rx="1.5" fill="#F5F8F9"/>
<rect x="1363.0" y="313" width="11.3" height="11" rx="1.5" fill="#F5F8F9"/>
<rect x="1382.3" y="313" width="11.3" height="11" rx="1.5" fill="#F5F8F9"/>
<rect x="1401.7" y="313" width="11.3" height="11" rx="1.5" fill="#F5F8F9"/>
<rect x="1363.0" y="334" width="11.3" height="11" rx="1.5" fill="#F5F8F9"/>
<rect x="1382.3" y="334" width="11.3" height="11" rx="1.5" fill="#F5F8F9"/>
<rect x="1401.7" y="334" width="11.3" height="11" rx="1.5" fill="#F5F8F9"/>
<rect x="1363.0" y="355" width="11.3" height="11" rx="1.5" fill="#F5F8F9"/>
<rect x="1382.3" y="355" width="11.3" height="11" rx="1.5" fill="#F5F8F9"/>
<rect x="1401.7" y="355" width="11.3" height="11" rx="1.5" fill="#F5F8F9"/>
<rect x="-10" y="219" width="150" height="153" fill="#CFD7DB"/>
<rect x="-15" y="219" width="160" height="11" rx="2" fill="#C0C9CE"/>
<rect x="12.5" y="243" width="12.2" height="14" rx="2" fill="#F2F5F7"/>
<rect x="35.7" y="243" width="12.2" height="14" rx="2" fill="#F2F5F7"/>
<rect x="58.9" y="243" width="12.2" height="14" rx="2" fill="#F2F5F7"/>
<rect x="82.1" y="243" width="12.2" height="14" rx="2" fill="#F2F5F7"/>
<rect x="105.3" y="243" width="12.2" height="14" rx="2" fill="#F2F5F7"/>
<rect x="12.5" y="270" width="12.2" height="14" rx="2" fill="#F2F5F7"/>
<rect x="35.7" y="270" width="12.2" height="14" rx="2" fill="#F2F5F7"/>
<rect x="58.9" y="270" width="12.2" height="14" rx="2" fill="#F2F5F7"/>
<rect x="82.1" y="270" width="12.2" height="14" rx="2" fill="#F2F5F7"/>
<rect x="105.3" y="270" width="12.2" height="14" rx="2" fill="#F2F5F7"/>
<rect x="12.5" y="297" width="12.2" height="14" rx="2" fill="#F2F5F7"/>
<rect x="35.7" y="297" width="12.2" height="14" rx="2" fill="#F2F5F7"/>
<rect x="58.9" y="297" width="12.2" height="14" rx="2" fill="#F2F5F7"/>
<rect x="82.1" y="297" width="12.2" height="14" rx="2" fill="#F2F5F7"/>
<rect x="105.3" y="297" width="12.2" height="14" rx="2" fill="#F2F5F7"/>
<rect x="12.5" y="324" width="12.2" height="14" rx="2" fill="#F2F5F7"/>
<rect x="35.7" y="324" width="12.2" height="14" rx="2" fill="#FFC825"/>
<rect x="58.9" y="324" width="12.2" height="14" rx="2" fill="#F2F5F7"/>
<rect x="82.1" y="324" width="12.2" height="14" rx="2" fill="#F2F5F7"/>
<rect x="105.3" y="324" width="12.2" height="14" rx="2" fill="#F2F5F7"/>
<rect x="12.5" y="351" width="12.2" height="14" rx="2" fill="#F2F5F7"/>
<rect x="35.7" y="351" width="12.2" height="14" rx="2" fill="#F2F5F7"/>
<rect x="58.9" y="351" width="12.2" height="14" rx="2" fill="#F2F5F7"/>
<rect x="82.1" y="351" width="12.2" height="14" rx="2" fill="#F2F5F7"/>
<rect x="105.3" y="351" width="12.2" height="14" rx="2" fill="#F2F5F7"/>
<rect x="53" y="334" width="24" height="38" rx="3" fill="#F2F5F7"/>
<rect x="48" y="330" width="34" height="5" rx="2.5" fill="#C0C9CE"/>
<rect x="214" y="246" width="132" height="126" fill="#CFD7DB"/>
<rect x="209" y="246" width="142" height="11" rx="2" fill="#C0C9CE"/>
<rect x="236.5" y="270" width="13.5" height="14" rx="2" fill="#F2F5F7"/>
<rect x="261.0" y="270" width="13.5" height="14" rx="2" fill="#F2F5F7"/>
<rect x="285.5" y="270" width="13.5" height="14" rx="2" fill="#F2F5F7"/>
<rect x="310.0" y="270" width="13.5" height="14" rx="2" fill="#F2F5F7"/>
<rect x="236.5" y="297" width="13.5" height="14" rx="2" fill="#F2F5F7"/>
<rect x="261.0" y="297" width="13.5" height="14" rx="2" fill="#F2F5F7"/>
<rect x="285.5" y="297" width="13.5" height="14" rx="2" fill="#FFC825"/>
<rect x="310.0" y="297" width="13.5" height="14" rx="2" fill="#F2F5F7"/>
<rect x="236.5" y="324" width="13.5" height="14" rx="2" fill="#F2F5F7"/>
<rect x="261.0" y="324" width="13.5" height="14" rx="2" fill="#F2F5F7"/>
<rect x="285.5" y="324" width="13.5" height="14" rx="2" fill="#F2F5F7"/>
<rect x="310.0" y="324" width="13.5" height="14" rx="2" fill="#F2F5F7"/>
<rect x="236.5" y="351" width="13.5" height="14" rx="2" fill="#F2F5F7"/>
<rect x="261.0" y="351" width="13.5" height="14" rx="2" fill="#F2F5F7"/>
<rect x="285.5" y="351" width="13.5" height="14" rx="2" fill="#F2F5F7"/>
<rect x="310.0" y="351" width="13.5" height="14" rx="2" fill="#F2F5F7"/>
<rect x="268" y="334" width="24" height="38" rx="3" fill="#F2F5F7"/>
<rect x="263" y="330" width="34" height="5" rx="2.5" fill="#C0C9CE"/>
<rect x="412" y="219" width="168" height="153" fill="#CFD7DB"/>
<rect x="407" y="219" width="178" height="11" rx="2" fill="#C0C9CE"/>
<rect x="434.5" y="243" width="11.3" height="14" rx="2" fill="#F2F5F7"/>
<rect x="456.8" y="243" width="11.3" height="14" rx="2" fill="#F2F5F7"/>
<rect x="479.2" y="243" width="11.3" height="14" rx="2" fill="#F2F5F7"/>
<rect x="501.5" y="243" width="11.3" height="14" rx="2" fill="#F2F5F7"/>
<rect x="523.8" y="243" width="11.3" height="14" rx="2" fill="#F2F5F7"/>
<rect x="546.2" y="243" width="11.3" height="14" rx="2" fill="#F2F5F7"/>
<rect x="434.5" y="270" width="11.3" height="14" rx="2" fill="#F2F5F7"/>
<rect x="456.8" y="270" width="11.3" height="14" rx="2" fill="#F2F5F7"/>
<rect x="479.2" y="270" width="11.3" height="14" rx="2" fill="#F2F5F7"/>
<rect x="501.5" y="270" width="11.3" height="14" rx="2" fill="#F2F5F7"/>
<rect x="523.8" y="270" width="11.3" height="14" rx="2" fill="#F2F5F7"/>
<rect x="546.2" y="270" width="11.3" height="14" rx="2" fill="#F2F5F7"/>
<rect x="434.5" y="297" width="11.3" height="14" rx="2" fill="#F2F5F7"/>
<rect x="456.8" y="297" width="11.3" height="14" rx="2" fill="#F2F5F7"/>
<rect x="479.2" y="297" width="11.3" height="14" rx="2" fill="#F2F5F7"/>
<rect x="501.5" y="297" width="11.3" height="14" rx="2" fill="#F2F5F7"/>
<rect x="523.8" y="297" width="11.3" height="14" rx="2" fill="#F2F5F7"/>
<rect x="546.2" y="297" width="11.3" height="14" rx="2" fill="#F2F5F7"/>
<rect x="434.5" y="324" width="11.3" height="14" rx="2" fill="#FFC825"/>
<rect x="456.8" y="324" width="11.3" height="14" rx="2" fill="#F2F5F7"/>
<rect x="479.2" y="324" width="11.3" height="14" rx="2" fill="#F2F5F7"/>
<rect x="501.5" y="324" width="11.3" height="14" rx="2" fill="#F2F5F7"/>
<rect x="523.8" y="324" width="11.3" height="14" rx="2" fill="#F2F5F7"/>
<rect x="546.2" y="324" width="11.3" height="14" rx="2" fill="#F2F5F7"/>
<rect x="434.5" y="351" width="11.3" height="14" rx="2" fill="#F2F5F7"/>
<rect x="456.8" y="351" width="11.3" height="14" rx="2" fill="#F2F5F7"/>
<rect x="479.2" y="351" width="11.3" height="14" rx="2" fill="#F2F5F7"/>
<rect x="501.5" y="351" width="11.3" height="14" rx="2" fill="#F2F5F7"/>
<rect x="523.8" y="351" width="11.3" height="14" rx="2" fill="#F2F5F7"/>
<rect x="546.2" y="351" width="11.3" height="14" rx="2" fill="#F2F5F7"/>
<rect x="484" y="334" width="24" height="38" rx="3" fill="#F2F5F7"/>
<rect x="479" y="330" width="34" height="5" rx="2.5" fill="#C0C9CE"/>
<rect x="636" y="246" width="128" height="126" fill="#CFD7DB"/>
<rect x="631" y="246" width="138" height="11" rx="2" fill="#C0C9CE"/>
<rect x="658.5" y="270" width="12.5" height="14" rx="2" fill="#F2F5F7"/>
<rect x="682.0" y="270" width="12.5" height="14" rx="2" fill="#F2F5F7"/>
<rect x="705.5" y="270" width="12.5" height="14" rx="2" fill="#F2F5F7"/>
<rect x="729.0" y="270" width="12.5" height="14" rx="2" fill="#F2F5F7"/>
<rect x="658.5" y="297" width="12.5" height="14" rx="2" fill="#F2F5F7"/>
<rect x="682.0" y="297" width="12.5" height="14" rx="2" fill="#F2F5F7"/>
<rect x="705.5" y="297" width="12.5" height="14" rx="2" fill="#F2F5F7"/>
<rect x="729.0" y="297" width="12.5" height="14" rx="2" fill="#F2F5F7"/>
<rect x="658.5" y="324" width="12.5" height="14" rx="2" fill="#F2F5F7"/>
<rect x="682.0" y="324" width="12.5" height="14" rx="2" fill="#F2F5F7"/>
<rect x="705.5" y="324" width="12.5" height="14" rx="2" fill="#F2F5F7"/>
<rect x="729.0" y="324" width="12.5" height="14" rx="2" fill="#F2F5F7"/>
<rect x="658.5" y="351" width="12.5" height="14" rx="2" fill="#F2F5F7"/>
<rect x="682.0" y="351" width="12.5" height="14" rx="2" fill="#F2F5F7"/>
<rect x="705.5" y="351" width="12.5" height="14" rx="2" fill="#F2F5F7"/>
<rect x="729.0" y="351" width="12.5" height="14" rx="2" fill="#F2F5F7"/>
<rect x="688" y="334" width="24" height="38" rx="3" fill="#F2F5F7"/>
<rect x="683" y="330" width="34" height="5" rx="2.5" fill="#C0C9CE"/>
<rect x="830" y="219" width="152" height="153" fill="#CFD7DB"/>
<rect x="825" y="219" width="162" height="11" rx="2" fill="#C0C9CE"/>
<rect x="852.5" y="243" width="12.6" height="14" rx="2" fill="#F2F5F7"/>
<rect x="876.1" y="243" width="12.6" height="14" rx="2" fill="#F2F5F7"/>
<rect x="899.7" y="243" width="12.6" height="14" rx="2" fill="#F2F5F7"/>
<rect x="923.3" y="243" width="12.6" height="14" rx="2" fill="#F2F5F7"/>
<rect x="946.9" y="243" width="12.6" height="14" rx="2" fill="#FFC825"/>
<rect x="852.5" y="270" width="12.6" height="14" rx="2" fill="#F2F5F7"/>
<rect x="876.1" y="270" width="12.6" height="14" rx="2" fill="#F2F5F7"/>
<rect x="899.7" y="270" width="12.6" height="14" rx="2" fill="#F2F5F7"/>
<rect x="923.3" y="270" width="12.6" height="14" rx="2" fill="#F2F5F7"/>
<rect x="946.9" y="270" width="12.6" height="14" rx="2" fill="#F2F5F7"/>
<rect x="852.5" y="297" width="12.6" height="14" rx="2" fill="#F2F5F7"/>
<rect x="876.1" y="297" width="12.6" height="14" rx="2" fill="#F2F5F7"/>
<rect x="899.7" y="297" width="12.6" height="14" rx="2" fill="#F2F5F7"/>
<rect x="923.3" y="297" width="12.6" height="14" rx="2" fill="#F2F5F7"/>
<rect x="946.9" y="297" width="12.6" height="14" rx="2" fill="#F2F5F7"/>
<rect x="852.5" y="324" width="12.6" height="14" rx="2" fill="#F2F5F7"/>
<rect x="876.1" y="324" width="12.6" height="14" rx="2" fill="#F2F5F7"/>
<rect x="899.7" y="324" width="12.6" height="14" rx="2" fill="#F2F5F7"/>
<rect x="923.3" y="324" width="12.6" height="14" rx="2" fill="#F2F5F7"/>
<rect x="946.9" y="324" width="12.6" height="14" rx="2" fill="#F2F5F7"/>
<rect x="852.5" y="351" width="12.6" height="14" rx="2" fill="#F2F5F7"/>
<rect x="876.1" y="351" width="12.6" height="14" rx="2" fill="#F2F5F7"/>
<rect x="899.7" y="351" width="12.6" height="14" rx="2" fill="#F2F5F7"/>
<rect x="923.3" y="351" width="12.6" height="14" rx="2" fill="#F2F5F7"/>
<rect x="946.9" y="351" width="12.6" height="14" rx="2" fill="#F2F5F7"/>
<rect x="894" y="334" width="24" height="38" rx="3" fill="#F2F5F7"/>
<rect x="889" y="330" width="34" height="5" rx="2.5" fill="#C0C9CE"/>
<rect x="1042" y="246" width="136" height="126" fill="#CFD7DB"/>
<rect x="1037" y="246" width="146" height="11" rx="2" fill="#C0C9CE"/>
<rect x="1064.5" y="270" width="14.5" height="14" rx="2" fill="#F2F5F7"/>
<rect x="1090.0" y="270" width="14.5" height="14" rx="2" fill="#F2F5F7"/>
<rect x="1115.5" y="270" width="14.5" height="14" rx="2" fill="#F2F5F7"/>
<rect x="1141.0" y="270" width="14.5" height="14" rx="2" fill="#F2F5F7"/>
<rect x="1064.5" y="297" width="14.5" height="14" rx="2" fill="#F2F5F7"/>
<rect x="1090.0" y="297" width="14.5" height="14" rx="2" fill="#F2F5F7"/>
<rect x="1115.5" y="297" width="14.5" height="14" rx="2" fill="#F2F5F7"/>
<rect x="1141.0" y="297" width="14.5" height="14" rx="2" fill="#F2F5F7"/>
<rect x="1064.5" y="324" width="14.5" height="14" rx="2" fill="#F2F5F7"/>
<rect x="1090.0" y="324" width="14.5" height="14" rx="2" fill="#F2F5F7"/>
<rect x="1115.5" y="324" width="14.5" height="14" rx="2" fill="#F2F5F7"/>
<rect x="1141.0" y="324" width="14.5" height="14" rx="2" fill="#F2F5F7"/>
<rect x="1064.5" y="351" width="14.5" height="14" rx="2" fill="#F2F5F7"/>
<rect x="1090.0" y="351" width="14.5" height="14" rx="2" fill="#F2F5F7"/>
<rect x="1115.5" y="351" width="14.5" height="14" rx="2" fill="#F2F5F7"/>
<rect x="1141.0" y="351" width="14.5" height="14" rx="2" fill="#F2F5F7"/>
<rect x="1098" y="334" width="24" height="38" rx="3" fill="#F2F5F7"/>
<rect x="1093" y="330" width="34" height="5" rx="2.5" fill="#C0C9CE"/>
<rect x="1236" y="219" width="164" height="153" fill="#CFD7DB"/>
<rect x="1231" y="219" width="174" height="11" rx="2" fill="#C0C9CE"/>
<rect x="1258.5" y="243" width="10.7" height="14" rx="2" fill="#F2F5F7"/>
<rect x="1280.2" y="243" width="10.7" height="14" rx="2" fill="#F2F5F7"/>
<rect x="1301.8" y="243" width="10.7" height="14" rx="2" fill="#F2F5F7"/>
<rect x="1323.5" y="243" width="10.7" height="14" rx="2" fill="#F2F5F7"/>
<rect x="1345.2" y="243" width="10.7" height="14" rx="2" fill="#F2F5F7"/>
<rect x="1366.8" y="243" width="10.7" height="14" rx="2" fill="#F2F5F7"/>
<rect x="1258.5" y="270" width="10.7" height="14" rx="2" fill="#F2F5F7"/>
<rect x="1280.2" y="270" width="10.7" height="14" rx="2" fill="#F2F5F7"/>
<rect x="1301.8" y="270" width="10.7" height="14" rx="2" fill="#F2F5F7"/>
<rect x="1323.5" y="270" width="10.7" height="14" rx="2" fill="#F2F5F7"/>
<rect x="1345.2" y="270" width="10.7" height="14" rx="2" fill="#F2F5F7"/>
<rect x="1366.8" y="270" width="10.7" height="14" rx="2" fill="#F2F5F7"/>
<rect x="1258.5" y="297" width="10.7" height="14" rx="2" fill="#F2F5F7"/>
<rect x="1280.2" y="297" width="10.7" height="14" rx="2" fill="#F2F5F7"/>
<rect x="1301.8" y="297" width="10.7" height="14" rx="2" fill="#F2F5F7"/>
<rect x="1323.5" y="297" width="10.7" height="14" rx="2" fill="#FFC825"/>
<rect x="1345.2" y="297" width="10.7" height="14" rx="2" fill="#F2F5F7"/>
<rect x="1366.8" y="297" width="10.7" height="14" rx="2" fill="#F2F5F7"/>
<rect x="1258.5" y="324" width="10.7" height="14" rx="2" fill="#F2F5F7"/>
<rect x="1280.2" y="324" width="10.7" height="14" rx="2" fill="#F2F5F7"/>
<rect x="1301.8" y="324" width="10.7" height="14" rx="2" fill="#F2F5F7"/>
<rect x="1323.5" y="324" width="10.7" height="14" rx="2" fill="#F2F5F7"/>
<rect x="1345.2" y="324" width="10.7" height="14" rx="2" fill="#F2F5F7"/>
<rect x="1366.8" y="324" width="10.7" height="14" rx="2" fill="#F2F5F7"/>
<rect x="1258.5" y="351" width="10.7" height="14" rx="2" fill="#F2F5F7"/>
<rect x="1280.2" y="351" width="10.7" height="14" rx="2" fill="#F2F5F7"/>
<rect x="1301.8" y="351" width="10.7" height="14" rx="2" fill="#F2F5F7"/>
<rect x="1323.5" y="351" width="10.7" height="14" rx="2" fill="#F2F5F7"/>
<rect x="1345.2" y="351" width="10.7" height="14" rx="2" fill="#F2F5F7"/>
<rect x="1366.8" y="351" width="10.7" height="14" rx="2" fill="#F2F5F7"/>
<rect x="1306" y="334" width="24" height="38" rx="3" fill="#F2F5F7"/>
<rect x="1301" y="330" width="34" height="5" rx="2.5" fill="#C0C9CE"/>
<rect x="171.725" y="318.8" width="8.549999999999999" height="53.199999999999996" rx="3.8" fill="#A3ADB3"/>
<circle cx="176" cy="296" r="38" fill="#A8B3B9"/>
<circle cx="147.5" cy="315" r="26.599999999999998" fill="#A8B3B9"/>
<circle cx="204.5" cy="315" r="28.5" fill="#A8B3B9"/>
<circle cx="177.9" cy="322.59999999999997" r="30.4" fill="#A8B3B9"/>
<rect x="366.825" y="307.6" width="10.35" height="64.39999999999999" rx="4.6" fill="#A3ADB3"/>
<circle cx="372" cy="280" r="46" fill="#BAC4C9"/>
<circle cx="337.5" cy="303" r="32.199999999999996" fill="#BAC4C9"/>
<circle cx="406.5" cy="303" r="34.5" fill="#BAC4C9"/>
<circle cx="374.3" cy="312.2" r="36.8" fill="#BAC4C9"/>
<rect x="574.175" y="324.4" width="7.6499999999999995" height="47.6" rx="3.4" fill="#A3ADB3"/>
<circle cx="578" cy="304" r="34" fill="#A8B3B9"/>
<circle cx="552.5" cy="321" r="23.8" fill="#A8B3B9"/>
<circle cx="603.5" cy="321" r="25.5" fill="#A8B3B9"/>
<circle cx="579.7" cy="327.8" r="27.2" fill="#A8B3B9"/>
<rect x="764.375" y="302" width="11.25" height="70" rx="5" fill="#A3ADB3"/>
<circle cx="770" cy="272" r="50" fill="#BAC4C9"/>
<circle cx="732.5" cy="297" r="35" fill="#BAC4C9"/>
<circle cx="807.5" cy="297" r="37.5" fill="#BAC4C9"/>
<circle cx="772.5" cy="307" r="40" fill="#BAC4C9"/>
<rect x="981.95" y="321.6" width="8.1" height="50.4" rx="3.6" fill="#A3ADB3"/>
<circle cx="986" cy="300" r="36" fill="#A8B3B9"/>
<circle cx="959" cy="318" r="25.2" fill="#A8B3B9"/>
<circle cx="1013" cy="318" r="27" fill="#A8B3B9"/>
<circle cx="987.8" cy="325.2" r="28.8" fill="#A8B3B9"/>
<rect x="1175.05" y="310.4" width="9.9" height="61.60000000000001" rx="4.4" fill="#A3ADB3"/>
<circle cx="1180" cy="284" r="44" fill="#BAC4C9"/>
<circle cx="1147" cy="306" r="30.800000000000004" fill="#BAC4C9"/>
<circle cx="1213" cy="306" r="33" fill="#BAC4C9"/>
<circle cx="1182.2" cy="314.8" r="35.2" fill="#BAC4C9"/>
<rect x="1399.725" y="318.8" width="8.549999999999999" height="53.199999999999996" rx="3.8" fill="#A3ADB3"/>
<circle cx="1404" cy="296" r="38" fill="#A8B3B9"/>
<circle cx="1375.5" cy="315" r="26.599999999999998" fill="#A8B3B9"/>
<circle cx="1432.5" cy="315" r="28.5" fill="#A8B3B9"/>
<circle cx="1405.9" cy="322.59999999999997" r="30.4" fill="#A8B3B9"/>
<rect x="60.4" y="327.2" width="7.2" height="44.800000000000004" rx="3.2" fill="#A3ADB3"/>
<circle cx="64" cy="308" r="32" fill="#BAC4C9"/>
<circle cx="40" cy="324" r="22.400000000000002" fill="#BAC4C9"/>
<circle cx="88" cy="324" r="24" fill="#BAC4C9"/>
<circle cx="65.6" cy="330.40000000000003" r="25.6" fill="#BAC4C9"/>
<rect x="0" y="372" width="1440" height="26" fill="#EDF0F2"/>
<path d="M150 168 q7 -7 14 0 q7 -7 14 0" fill="none" stroke="#98A3A9" stroke-width="2.2" stroke-linecap="round"/>
<path d="M246 146 q5.6000000000000005 -5.6000000000000005 11.200000000000001 0 q5.6000000000000005 -5.6000000000000005 11.200000000000001 0" fill="none" stroke="#98A3A9" stroke-width="1.7600000000000002" stroke-linecap="round"/>
<path d="M330 196 q4.8999999999999995 -4.8999999999999995 9.799999999999999 0 q4.8999999999999995 -4.8999999999999995 9.799999999999999 0" fill="none" stroke="#98A3A9" stroke-width="1.54" stroke-linecap="round"/>
<path d="M980 158 q7.3500000000000005 -7.3500000000000005 14.700000000000001 0 q7.3500000000000005 -7.3500000000000005 14.700000000000001 0" fill="none" stroke="#98A3A9" stroke-width="2.3100000000000005" stroke-linecap="round"/>
<path d="M1068 200 q5.95 -5.95 11.9 0 q5.95 -5.95 11.9 0" fill="none" stroke="#98A3A9" stroke-width="1.87" stroke-linecap="round"/>
<path d="M660 150 q6.3 -6.3 12.6 0 q6.3 -6.3 12.6 0" fill="none" stroke="#98A3A9" stroke-width="1.9800000000000002" stroke-linecap="round"/>
</svg>
